<?xml version="1.0" encoding="UTF-8"?>
<svg width="80px" height="80px" viewBox="0 0 80 80" version="1.1" xmlns="http://www.w3.org/2000/svg" xmlns:xlink="http://www.w3.org/1999/xlink">
    <!-- Generator: Sketch 49.1 (51147) - http://www.bohemiancoding.com/sketch -->
    <title>bt</title>
    <desc>Created with Sketch.</desc>
    <defs></defs>
    <g id="Page-1" stroke="none" stroke-width="1" fill="none" fill-rule="evenodd">
        <g id="bt">
            <rect id="Rectangle-2" fill="#FFFFFF" x="0" y="0" width="80" height="80"></rect>
            <path d="M30.6101186,70.72 C24.9826087,70.72 20.4958103,67.6 18.7467194,62 C17.2257708,66.24 13.6515415,69.68 9.77312253,70.64 C10.5335968,65.84 10.5335968,60 10.5335968,52.96 L10.5335968,18.8 C10.5335968,13.52 9.6970751,11.92 6.65517787,10.16 L6.65517787,10 L21.0281423,10 L21.0281423,40 C22.3209486,33.92 26.4275099,29.76 32.3592095,29.76 C40.1920949,29.76 46.5800791,37.36 46.5800791,49.92 C46.5800791,62.64 39.4316206,70.72 30.6101186,70.72 Z M35.4011067,50.24 C35.4011067,40.32 32.8154941,34.4 28.1766008,34.4 C24.6023715,34.4 21.0281423,38.8 21.0281423,46.32 L21.0281423,56.24 C21.0281423,63.84 24.4502767,68.08 28.0245059,68.08 C32.8915415,68.08 35.4011067,61.36 35.4011067,50.24 Z M72.7403953,56.56 L73.4248221,56.72 C72.7403953,64.64 69.7745455,70.72 62.3979447,70.72 C56.2381028,70.72 52.2075889,66.8 52.2836364,58.24 L52.3596838,32.64 L48.4812648,32.64 L48.4812648,31.84 C55.0213439,30.24 60.0404743,24.8 62.0177075,16.8 L62.7021344,16.8 L62.7021344,30.56 L72.512253,30.56 L72.1320158,32.64 L62.7021344,32.64 L62.7021344,58.4 C62.7021344,62.96 64.0709881,65.12 66.8086957,65.12 C69.8505929,65.12 71.9038735,62.16 72.7403953,56.56 Z" fill="#000000"></path>
            <rect id="Rectangle" fill="#000000" x="29" y="50" width="15" height="1.5"></rect>
        </g>
    </g>
</svg>